# Blender v2.91.0 OBJ File: 'base.blend'
# www.blender.org
mtllib pc.mtl
o Cube.005_Cube.009
v -0.446349 -0.100936 1.183023
v -0.446349 0.326849 1.183023
v -0.446349 -0.100936 -0.816977
v -0.446349 0.326849 -0.816977
v 0.579517 -0.100936 1.183023
v 0.579517 0.326849 1.183023
v 0.579517 -0.100936 -0.816977
v 0.579517 0.326849 -0.816977
v -0.398212 0.359520 0.686007
v -0.398212 0.359520 -0.319961
v 0.531379 0.359520 -0.319961
v 0.531379 0.359520 0.686007
v -0.321594 1.463516 0.801417
v -0.321594 1.463516 -0.435371
v 0.579517 1.543729 -0.519928
v 0.579517 1.543729 0.885974
v -0.338965 1.633824 0.856887
v -0.338965 1.633824 -0.490842
v 0.472133 1.633824 -0.490842
v 0.472133 1.633824 0.856887
v 0.531379 0.492302 -0.319961
v 0.531379 0.492302 0.686007
v -0.398212 0.492302 0.686007
v -0.398212 0.492302 -0.319961
v 0.544082 0.602408 -0.471367
v -0.292198 0.682621 0.761132
v 0.544082 0.602408 0.837412
v -0.292198 0.682621 -0.395086
v -0.446349 1.543729 0.885974
v -0.446349 1.543729 -0.519928
v -0.410915 0.602408 0.837412
v -0.410915 0.602408 -0.471367
vt 0.335937 0.718750
vt 0.335937 0.718750
vt 0.335937 0.718750
vt 0.335937 0.718750
vt 0.335937 0.718750
vt 0.335937 0.718750
vt 0.335937 0.718750
vt 0.335937 0.718750
vt 0.335937 0.718750
vt 0.335937 0.718750
vt 0.687500 0.648438
vt 0.687500 0.648438
vt 0.687500 0.648438
vt 0.687500 0.648438
vt 0.335937 0.718750
vt 0.335937 0.718750
vt 0.687500 0.648438
vt 0.687500 0.648438
vt 0.210938 0.195313
vt 0.210938 0.195313
vt 0.210938 0.195313
vt 0.210938 0.195313
vt 0.687500 0.648438
vt 0.687500 0.648438
vt 0.687500 0.648438
vt 0.687500 0.648438
vt 0.687500 0.648438
vt 0.687500 0.648438
vt 0.687500 0.648438
vt 0.687500 0.648438
vt 0.687500 0.648438
vt 0.687500 0.648438
vt 0.687500 0.648438
vt 0.687500 0.648438
vt 0.687500 0.648438
vt 0.687500 0.648438
vt 0.687500 0.648438
vt 0.687500 0.648438
vt 0.687500 0.648438
vt 0.687500 0.648438
vn -1.0000 0.0000 0.0000
vn 0.0000 0.0000 -1.0000
vn 1.0000 0.0000 0.0000
vn 0.0000 0.0000 1.0000
vn 0.0000 -1.0000 0.0000
vn 0.0000 0.9978 0.0656
vn 0.9993 -0.0376 0.0000
vn 0.0000 0.9978 -0.0656
vn 0.5616 0.8274 0.0000
vn -0.5616 0.8274 0.0000
vn 0.6427 0.7661 0.0000
vn -0.9993 -0.0376 0.0000
vn 0.0000 -0.0515 0.9987
vn 0.0000 -0.0515 -0.9987
vn 0.0000 1.0000 0.0000
vn -0.6427 0.7661 0.0000
vn 0.0000 0.3072 0.9516
vn 0.0000 0.3072 -0.9516
vn 0.0000 -0.8088 -0.5881
vn 0.0000 -0.8088 0.5881
vn -0.9934 -0.1146 0.0000
vn 0.9934 -0.1146 0.0000
vn -0.5408 -0.8411 0.0000
vn -0.5511 0.0223 -0.8342
vn -0.5511 0.0223 0.8342
vn -0.5599 0.8286 0.0000
usemtl Material.006
s off
f 1/1/1 2/2/1 4/3/1 3/4/1
f 3/4/2 4/3/2 8/5/2 7/6/2
f 7/6/3 8/5/3 6/7/3 5/8/3
f 5/8/4 6/7/4 2/2/4 1/1/4
f 3/4/5 7/6/5 5/8/5 1/1/5
f 2/2/6 6/7/6 12/9/6 9/10/6
f 27/11/7 25/12/7 15/13/7 16/14/7
f 8/5/8 4/3/8 10/15/8 11/16/8
f 6/7/9 8/5/9 11/16/9 12/9/9
f 4/3/10 2/2/10 9/10/10 10/15/10
f 16/14/11 15/13/11 19/17/11 20/18/11
f 28/19/12 26/20/12 13/21/12 14/22/12
f 31/23/13 27/11/13 16/14/13 29/24/13
f 25/12/14 32/25/14 30/26/14 15/13/14
f 19/17/15 18/27/15 17/28/15 20/18/15
f 30/26/16 29/24/16 17/28/16 18/27/16
f 29/24/17 16/14/17 20/18/17 17/28/17
f 15/13/18 30/26/18 18/27/18 19/17/18
f 11/29/2 10/30/2 24/31/2 21/32/2
f 9/33/4 12/34/4 22/35/4 23/36/4
f 10/30/1 9/33/1 23/36/1 24/31/1
f 12/34/3 11/29/3 21/32/3 22/35/3
f 21/32/19 24/31/19 32/25/19 25/12/19
f 23/36/20 22/35/20 27/11/20 31/23/20
f 24/31/21 23/36/21 31/23/21 32/25/21
f 22/35/22 21/32/22 25/12/22 27/11/22
f 14/37/23 13/38/23 29/24/23 30/26/23
f 13/38/24 26/39/24 31/23/24 29/24/24
f 28/40/25 14/37/25 30/26/25 32/25/25
f 26/39/26 28/40/26 32/25/26 31/23/26
