# Blender v2.91.0 OBJ File: 'base.blend'
# www.blender.org
mtllib RM0.mtl
o Plane
v -6.000000 0.000000 6.000000
v 6.000000 0.000000 6.000000
v -6.000000 0.000000 -6.000000
v 6.000000 0.000000 -6.000000
vt 0.000000 0.000000
vt 1.000000 0.000000
vt 1.000000 1.000000
vt 0.000000 1.000000
vn 0.0000 1.0000 0.0000
usemtl None
s off
f 1/1/1 2/2/1 4/3/1 3/4/1
o Cube_Cube.001
v 5.470142 -0.169509 -2.040462
v 5.470142 6.240906 -2.040462
v 6.002106 -0.169509 -2.040462
v 6.002106 6.240906 -2.040462
v 5.470142 -0.169509 -5.468062
v 5.470142 6.240906 -5.468062
v 1.964962 6.240906 -5.468062
v 1.964962 6.240906 -6.023551
v 1.964962 -0.169509 -6.023551
v 1.964962 -0.169509 -5.468062
vt 0.901608 0.195992
vt 0.905529 0.976060
vt 0.029491 0.976060
vt 0.028030 0.198453
vt 0.526477 -0.225535
vt 0.529097 1.181019
vt 0.382474 1.185624
vt 0.379854 -0.220931
vt 1.159030 0.059093
vt 1.159079 1.135916
vt 0.404489 1.135976
vt 0.404440 0.059153
vt 0.002423 0.509524
vt 0.002426 -0.349936
vt 0.153912 -0.349936
vt 0.153910 0.509524
vn 0.0000 0.0000 1.0000
vn -1.0000 0.0000 0.0000
usemtl Material.001
s off
f 9/5/2 10/6/2 11/7/2 14/8/2
f 7/9/2 8/10/2 6/11/2 5/12/2
f 5/13/3 6/14/3 10/15/3 9/16/3
f 14/17/3 11/18/3 12/19/3 13/20/3
o Cube.002_Cube.005
v 1.959442 -0.169509 5.470947
v 1.959442 6.240906 5.470947
v 1.951077 -0.169509 6.002845
v 1.951077 6.240906 6.002845
v 5.386618 -0.169509 5.524847
v 5.386618 6.240906 5.524847
v 5.441738 6.240906 2.020100
v 5.997159 6.240906 2.028836
v 5.997159 -0.169509 2.028836
v 5.441738 -0.169509 2.020100
vt 0.901608 0.195992
vt 0.905529 0.976060
vt 0.029491 0.976060
vt 0.028030 0.198453
vt 0.526477 -0.225535
vt 0.529097 1.181019
vt 0.382474 1.185624
vt 0.379854 -0.220931
vt 1.159030 0.059093
vt 1.159079 1.135916
vt 0.404489 1.135976
vt 0.404440 0.059153
vt 0.002423 0.509524
vt 0.002426 -0.349936
vt 0.153912 -0.349936
vt 0.153910 0.509524
vn -0.9999 0.0000 -0.0157
vn 0.0157 0.0000 -0.9999
usemtl Material.002
s off
f 19/21/4 20/22/4 21/23/4 24/24/4
f 17/25/4 18/26/4 16/27/4 15/28/4
f 15/29/5 16/30/5 20/31/5 19/32/5
f 24/33/5 21/34/5 22/35/5 23/36/5
o Cube.003_Cube.007
v -5.453603 -0.169509 2.014725
v -5.453603 6.240906 2.014725
v -5.985565 -0.169509 2.013465
v -5.985565 6.240906 2.013465
v -5.461724 -0.169509 5.442315
v -5.461724 6.240906 5.442315
v -1.956553 6.240906 5.450620
v -1.957869 6.240906 6.006107
v -1.957869 -0.169509 6.006107
v -1.956553 -0.169509 5.450620
vt 0.901608 0.195992
vt 0.905529 0.976060
vt 0.029491 0.976060
vt 0.028030 0.198453
vt 0.526477 -0.225535
vt 0.529097 1.181019
vt 0.382474 1.185624
vt 0.379854 -0.220931
vt 1.159030 0.059093
vt 1.159079 1.135916
vt 0.404489 1.135976
vt 0.404440 0.059153
vt 0.002423 0.509524
vt 0.002426 -0.349936
vt 0.153912 -0.349936
vt 0.153910 0.509524
vn 0.0024 0.0000 -1.0000
vn 1.0000 0.0000 0.0024
usemtl Material.004
s off
f 29/37/6 30/38/6 31/39/6 34/40/6
f 27/41/6 28/42/6 26/43/6 25/44/6
f 25/45/7 26/46/7 30/47/7 29/48/7
f 34/49/7 31/50/7 32/51/7 33/52/7
o Cube.001_Cube.006
v -1.951363 -0.169509 -5.475720
v -1.951363 6.240906 -5.475720
v -1.941738 -0.169509 -6.007596
v -1.941738 6.240906 -6.007596
v -5.378401 -0.169509 -5.537739
v -5.378401 6.240906 -5.537739
v -5.441824 6.240906 -2.033133
v -5.997222 6.240906 -2.043184
v -5.997222 -0.169509 -2.043184
v -5.441824 -0.169509 -2.033133
vt 0.901608 0.195992
vt 0.905529 0.976060
vt 0.029491 0.976060
vt 0.028030 0.198453
vt 0.526477 -0.225535
vt 0.529097 1.181019
vt 0.382474 1.185624
vt 0.379854 -0.220931
vt 1.159030 0.059093
vt 1.159079 1.135916
vt 0.404489 1.135976
vt 0.404440 0.059153
vt 0.002423 0.509524
vt 0.002426 -0.349936
vt 0.153912 -0.349936
vt 0.153910 0.509524
vn 0.9998 0.0000 0.0181
vn -0.0181 0.0000 0.9998
usemtl Material.003
s off
f 39/53/8 40/54/8 41/55/8 44/56/8
f 37/57/8 38/58/8 36/59/8 35/60/8
f 35/61/9 36/62/9 40/63/9 39/64/9
f 44/65/9 41/66/9 42/67/9 43/68/9
