# Blender v2.91.2 OBJ File: ''
# www.blender.org
mtllib room6.mtl
o Plane
v -6.000000 -0.000001 6.000000
v 6.000000 -0.000001 6.000000
v 6.000000 0.000001 -6.000000
v -6.000000 0.000001 -6.000000
vt 0.000000 0.000000
vt 1.000000 0.000000
vt 1.000000 1.000000
vt 0.000000 1.000000
vn 0.0000 1.0000 0.0000
usemtl None
s 1
f 1/1/1 2/2/1 3/3/1 4/4/1
o Cube_Cube.001
v 5.470142 -0.169508 -2.038594
v 5.470142 6.240907 -2.038593
v 1.964962 6.240907 -2.038593
v 1.964962 -0.169508 -2.038594
v 6.002106 -0.169509 -2.040462
v 6.002106 6.240906 -2.040461
v 5.470142 6.240906 -2.040461
v 5.470142 -0.169509 -2.040462
v 1.964962 6.240907 -6.023550
v 1.964962 -0.169508 -6.023551
vt 0.901608 0.195992
vt 0.905529 0.976060
vt 0.029491 0.976060
vt 0.028030 0.198453
vt 0.526477 -0.225535
vt 0.529097 1.181019
vt 0.382474 1.185624
vt 0.379854 -0.220931
vt 1.159030 0.059093
vt 1.159079 1.135916
vt 0.404489 1.135976
vt 0.404440 0.059153
vt 0.002423 0.997805
vt 0.002426 -0.002280
vt 0.997662 -0.002280
vt 0.997660 0.997805
vn 0.0000 -0.0000 1.0000
vn 1.0000 0.0000 0.0000
vn -1.0000 -0.0000 0.0000
usemtl Material.001
s 1
f 5/5/2 6/6/2 7/7/2 8/8/2
f 9/9/2 10/10/2 11/11/2 12/12/2
f 12/13/3 11/14/3 6/15/3 5/16/3
f 8/17/4 7/18/4 13/19/4 14/20/4
o Cube.002_Cube.005
v 5.386618 -0.169510 2.025613
v 5.386618 6.240905 2.025614
v 5.441738 6.240905 2.020101
v 5.441738 -0.169509 2.020100
v 1.951077 -0.169510 6.002845
v 1.951077 6.240905 6.002846
v 1.959442 6.240905 1.971714
v 1.959442 -0.169510 1.971713
v 5.997159 6.240905 2.028837
v 5.997159 -0.169509 2.028836
vt 0.901608 0.195992
vt 0.905529 0.976060
vt 0.029491 0.976060
vt 0.028030 0.198453
vt 0.997737 -0.225535
vt 1.000357 1.181019
vt -0.005075 1.185624
vt -0.007695 -0.220931
vt 1.159030 0.059093
vt 1.159079 1.135916
vt 0.404489 1.135976
vt 0.404440 0.059153
vt 0.002423 0.509524
vt 0.002426 -0.349936
vt 0.153912 -0.349936
vt 0.153910 0.509524
vn -0.0995 0.0000 -0.9950
vn -1.0000 0.0000 -0.0021
vn 0.0157 0.0000 -0.9999
usemtl Material.002
s 1
f 15/21/5 16/22/5 17/23/5 18/24/5
f 19/25/6 20/26/6 21/27/6 22/28/6
f 22/29/7 21/30/7 16/31/7 15/32/7
f 18/33/7 17/34/7 23/35/7 24/36/7
o Cube.003_Cube.007
v -5.461724 -0.169510 2.016839
v -5.461724 6.240905 2.016840
v -1.956553 6.240905 2.025145
v -1.956553 -0.169510 2.025144
v -5.985565 -0.169509 2.013465
v -5.985565 6.240905 2.013466
v -5.453603 6.240905 2.014726
v -5.453603 -0.169509 2.014725
v -1.957869 6.240905 6.006108
v -1.957869 -0.169510 6.006107
vt 0.901608 0.195992
vt 0.905529 0.976060
vt 0.029491 0.976060
vt 0.028030 0.198453
vt 0.526477 -0.225535
vt 0.529097 1.181019
vt 0.382474 1.185624
vt 0.379854 -0.220931
vt 1.159030 0.059093
vt 1.159079 1.135916
vt 0.404489 1.135976
vt 0.404440 0.059153
vt 0.002423 1.001711
vt 0.002426 0.005533
vt 0.997662 0.005533
vt 0.997660 1.001711
vn 0.0024 0.0000 -1.0000
vn 0.2520 -0.0000 0.9677
vn 1.0000 0.0000 0.0003
usemtl Material.004
s 1
f 25/37/8 26/38/8 27/39/8 28/40/8
f 29/41/8 30/42/8 31/43/8 32/44/8
f 32/45/9 31/46/9 26/47/9 25/48/9
f 28/49/10 27/50/10 33/51/10 34/52/10
o Cube.001_Cube.006
v -5.378401 -0.169508 -5.537739
v -5.378401 6.240907 -5.537738
v -5.441824 6.240906 -2.033132
v -5.441824 -0.169509 -2.033133
v -1.941738 -0.169508 -6.007596
v -1.941738 6.240907 -6.007595
v -1.951363 6.240907 -5.475719
v -1.951363 -0.169508 -5.475720
v -5.997222 6.240906 -2.043183
v -5.997222 -0.169509 -2.043184
vt 0.901608 0.195992
vt 0.905529 0.976060
vt 0.029491 0.976060
vt 0.028030 0.198453
vt 0.526477 -0.225535
vt 0.529097 1.181019
vt 0.382474 1.185624
vt 0.379854 -0.220931
vt 1.159030 0.059093
vt 1.159079 1.135916
vt 0.404489 1.135976
vt 0.404440 0.059153
vt 0.002423 0.509524
vt 0.002426 -0.349936
vt 0.153912 -0.349936
vt 0.153910 0.509524
vn 0.9998 0.0000 0.0181
vn -0.0181 -0.0000 0.9998
usemtl Material.003
s 1
f 35/53/11 36/54/11 37/55/11 38/56/11
f 39/57/11 40/58/11 41/59/11 42/60/11
f 42/61/12 41/62/12 36/63/12 35/64/12
f 38/65/12 37/66/12 43/67/12 44/68/12
